<?xml version="1.0" encoding="utf-8"?>
<!-- Generator: Adobe Illustrator 25.2.3, SVG Export Plug-In . SVG Version: 6.00 Build 0)  -->
<svg version="1.1" id="Layer_1" xmlns="http://www.w3.org/2000/svg" xmlns:xlink="http://www.w3.org/1999/xlink" x="0px" y="0px"
	 viewBox="0 0 400 1902.6" style="enable-background:new 0 0 400 1902.6;" xml:space="preserve">
<style type="text/css">
	.st0{fill:none;}
	.st1{fill:none;stroke:#CCB674;stroke-width:0.7359;stroke-miterlimit:10;}
	.st2{fill:none;stroke:#CCB674;stroke-width:0.7301;stroke-miterlimit:9.9999;}
	.st3{fill:url(#SVGID_1_);}
	.st4{fill:url(#New_Pattern_Swatch_1);stroke:#CCB674;stroke-miterlimit:10;}
</style>
<pattern  x="97" y="1902.6" width="103.9" height="174" patternUnits="userSpaceOnUse" id="New_Pattern_Swatch_1" viewBox="51.9 -260.8 103.9 174" style="overflow:visible;">
	<g>
		<rect x="51.9" y="-260.8" class="st0" width="103.9" height="174"/>
		<g>
			<line class="st1" x1="155.7" y1="-1.2" x2="113.6" y2="-102.2"/>
			<line class="st1" x1="155.7" y1="-1.2" x2="122.7" y2="-117.4"/>
			<line class="st1" x1="155.7" y1="-1.2" x2="133.5" y2="-135.5"/>
			<line class="st1" x1="155.7" y1="-1.2" x2="197.8" y2="-102.2"/>
			<line class="st1" x1="155.7" y1="-1.2" x2="188.7" y2="-117.4"/>
			<line class="st1" x1="155.7" y1="-1.2" x2="177.9" y2="-135.5"/>
			<path class="st1" d="M143.6-153.7"/>
			<line class="st1" x1="155.7" y1="-0.9" x2="155.9" y2="-173.1"/>
			<polygon class="st2" points="155.9,-0.7 207.3,-86.7 155.7,-173 104.3,-87 			"/>
		</g>
		<g>
			<line class="st1" x1="51.8" y1="-1.2" x2="9.7" y2="-102.2"/>
			<line class="st1" x1="51.8" y1="-1.2" x2="18.8" y2="-117.4"/>
			<line class="st1" x1="51.8" y1="-1.2" x2="29.6" y2="-135.5"/>
			<line class="st1" x1="51.8" y1="-1.2" x2="93.9" y2="-102.2"/>
			<line class="st1" x1="51.8" y1="-1.2" x2="84.8" y2="-117.4"/>
			<line class="st1" x1="51.8" y1="-1.2" x2="74" y2="-135.5"/>
			<path class="st1" d="M97.7-104.2"/>
			<path class="st1" d="M86.3-122.3"/>
			<path class="st1" d="M75.4-138.8"/>
			<path class="st1" d="M64.7-151.9"/>
			<line class="st1" x1="51.8" y1="-0.9" x2="52" y2="-173.1"/>
			<polygon class="st2" points="52,-0.7 103.4,-86.7 51.8,-173 0.4,-87 			"/>
		</g>
		<g>
			<line class="st1" x1="103.8" y1="-88.2" x2="61.7" y2="-189.2"/>
			<line class="st1" x1="103.8" y1="-88.2" x2="70.8" y2="-204.4"/>
			<line class="st1" x1="103.8" y1="-88.2" x2="81.6" y2="-222.5"/>
			<line class="st1" x1="103.8" y1="-88.2" x2="145.9" y2="-189.2"/>
			<line class="st1" x1="103.8" y1="-88.2" x2="136.8" y2="-204.4"/>
			<line class="st1" x1="103.8" y1="-88.2" x2="126" y2="-222.5"/>
			<path class="st1" d="M104.3-88.2"/>
			<path class="st1" d="M149.7-191.2"/>
			<path class="st1" d="M104.3-88.2"/>
			<path class="st1" d="M138.3-209.3"/>
			<path class="st1" d="M127.4-225.8"/>
			<path class="st1" d="M91.7-240.7"/>
			<path class="st1" d="M116.7-238.9"/>
			<line class="st1" x1="103.8" y1="-87.9" x2="104" y2="-260.1"/>
			<polygon class="st2" points="104,-87.7 155.4,-173.7 103.8,-260 52.4,-174 			"/>
		</g>
		<g>
			<line class="st1" x1="155.7" y1="-175.2" x2="113.6" y2="-276.2"/>
			<line class="st1" x1="155.7" y1="-175.2" x2="122.7" y2="-291.4"/>
			<line class="st1" x1="155.7" y1="-175.2" x2="133.5" y2="-309.5"/>
			<line class="st1" x1="155.7" y1="-175.2" x2="197.8" y2="-276.2"/>
			<line class="st1" x1="155.7" y1="-175.2" x2="188.7" y2="-291.4"/>
			<line class="st1" x1="155.7" y1="-175.2" x2="177.9" y2="-309.5"/>
			<line class="st1" x1="155.7" y1="-174.9" x2="155.9" y2="-347.1"/>
			<polygon class="st2" points="155.9,-174.7 207.3,-260.7 155.7,-347 104.3,-261 			"/>
		</g>
		<g>
			<line class="st1" x1="51.8" y1="-175.2" x2="9.7" y2="-276.2"/>
			<line class="st1" x1="51.8" y1="-175.2" x2="18.8" y2="-291.4"/>
			<line class="st1" x1="51.8" y1="-175.2" x2="29.6" y2="-309.5"/>
			<line class="st1" x1="51.8" y1="-175.2" x2="93.9" y2="-276.2"/>
			<line class="st1" x1="51.8" y1="-175.2" x2="84.8" y2="-291.4"/>
			<line class="st1" x1="51.8" y1="-175.2" x2="74" y2="-309.5"/>
			<path class="st1" d="M52.3-175.2"/>
			<path class="st1" d="M52.3-175.2"/>
			<line class="st1" x1="51.8" y1="-174.9" x2="52" y2="-347.1"/>
			<polygon class="st2" points="52,-174.7 103.4,-260.7 51.8,-347 0.4,-261 			"/>
		</g>
	</g>
</pattern>
<linearGradient id="SVGID_1_" gradientUnits="userSpaceOnUse" x1="180.7588" y1="905.4266" x2="260.7568" y2="1093.657" gradientTransform="matrix(1 0 0 -1 0 1902)">
	<stop  offset="0.6044" style="stop-color:#407ABF;stop-opacity:0.909"/>
	<stop  offset="1" style="stop-color:#407ABF;stop-opacity:0.9"/>
</linearGradient>
<rect x="0" y="0" class="st3" width="400" height="1902.6"/>
<rect x="0" y="0" class="st4" width="400" height="1902.6"/>
</svg>
