<?xml version="1.0" encoding="utf-8"?>
<!-- Generator: Adobe Illustrator 25.2.3, SVG Export Plug-In . SVG Version: 6.00 Build 0)  -->
<svg version="1.1" id="Layer_1" xmlns="http://www.w3.org/2000/svg" xmlns:xlink="http://www.w3.org/1999/xlink" x="0px" y="0px"
	 viewBox="0 0 183 183" style="enable-background:new 0 0 183 183;" xml:space="preserve">
<style type="text/css">
	.st0{fill:none;}
	.st1{fill:none;stroke:#CCB674;stroke-width:0.7359;stroke-miterlimit:10;}
	.st2{fill:none;stroke:#CCB674;stroke-width:0.7301;stroke-miterlimit:9.9999;}
	.st3{fill:none;stroke:#CCB674;stroke-width:0.5691;stroke-miterlimit:10;}
	.st4{fill:none;stroke:#CCB674;stroke-width:0.5646;stroke-miterlimit:9.9999;}
	.st5{fill:url(#SVGID_1_);stroke:#CCB674;stroke-width:0.7359;stroke-miterlimit:10;}
	.st6{fill:url(#SVGID_2_);stroke:#CCB674;stroke-width:0.7359;stroke-miterlimit:10;}
	.st7{fill:url(#SVGID_3_);stroke:#CCB674;stroke-width:0.7359;stroke-miterlimit:10;}
	.st8{fill:url(#SVGID_4_);stroke:#CCB674;stroke-width:0.7359;stroke-miterlimit:10;}
	.st9{fill:url(#SVGID_5_);stroke:#CCB674;stroke-width:0.7359;stroke-miterlimit:10;}
	.st10{fill:url(#SVGID_6_);stroke:#CCB674;stroke-width:0.7359;stroke-miterlimit:10;}
	.st11{fill:url(#SVGID_7_);stroke:#CCB674;stroke-width:0.7359;stroke-miterlimit:10;}
	.st12{fill:url(#SVGID_8_);stroke:#CCB674;stroke-width:0.7359;stroke-miterlimit:10;}
	.st13{fill:url(#SVGID_9_);stroke:#CCB674;stroke-width:0.7359;stroke-miterlimit:10;}
	.st14{fill:url(#SVGID_10_);stroke:#CCB674;stroke-width:0.7359;stroke-miterlimit:10;}
	.st15{fill:url(#SVGID_11_);stroke:#CCB674;stroke-width:0.7359;stroke-miterlimit:10;}
	.st16{fill:url(#SVGID_12_);stroke:#CCB674;stroke-width:0.7359;stroke-miterlimit:10;}
	.st17{fill:url(#SVGID_13_);stroke:#CCB674;stroke-width:0.7359;stroke-miterlimit:10;}
	.st18{fill:url(#SVGID_14_);stroke:#CCB674;stroke-width:0.7359;stroke-miterlimit:10;}
	.st19{fill:url(#SVGID_15_);stroke:#CCB674;stroke-width:0.7301;stroke-miterlimit:9.9999;}
</style>
<pattern  y="183" width="103.9" height="174" patternUnits="userSpaceOnUse" id="New_Pattern_Swatch_1" viewBox="51.9 -260.8 103.9 174" style="overflow:visible;">
	<g>
		<rect x="51.9" y="-260.8" class="st0" width="103.9" height="174"/>
		<g>
			<line class="st1" x1="155.7" y1="-1.2" x2="113.6" y2="-102.2"/>
			<line class="st1" x1="155.7" y1="-1.2" x2="122.7" y2="-117.4"/>
			<line class="st1" x1="155.7" y1="-1.2" x2="133.5" y2="-135.5"/>
			<line class="st1" x1="155.7" y1="-1.2" x2="197.8" y2="-102.2"/>
			<line class="st1" x1="155.7" y1="-1.2" x2="188.7" y2="-117.4"/>
			<line class="st1" x1="155.7" y1="-1.2" x2="177.9" y2="-135.5"/>
			<path class="st1" d="M143.6-153.7"/>
			<line class="st1" x1="155.7" y1="-0.9" x2="155.9" y2="-173.1"/>
			<polygon class="st2" points="155.9,-0.7 207.3,-86.7 155.7,-173 104.3,-87 			"/>
		</g>
		<g>
			<line class="st1" x1="51.8" y1="-1.2" x2="9.7" y2="-102.2"/>
			<line class="st1" x1="51.8" y1="-1.2" x2="18.8" y2="-117.4"/>
			<line class="st1" x1="51.8" y1="-1.2" x2="29.6" y2="-135.5"/>
			<line class="st1" x1="51.8" y1="-1.2" x2="93.9" y2="-102.2"/>
			<line class="st1" x1="51.8" y1="-1.2" x2="84.8" y2="-117.4"/>
			<line class="st1" x1="51.8" y1="-1.2" x2="74" y2="-135.5"/>
			<path class="st1" d="M97.7-104.2"/>
			<path class="st1" d="M86.3-122.3"/>
			<path class="st1" d="M75.4-138.8"/>
			<path class="st1" d="M64.7-151.9"/>
			<line class="st1" x1="51.8" y1="-0.9" x2="52" y2="-173.1"/>
			<polygon class="st2" points="52,-0.7 103.4,-86.7 51.8,-173 0.4,-87 			"/>
		</g>
		<g>
			<line class="st1" x1="103.8" y1="-88.2" x2="61.7" y2="-189.2"/>
			<line class="st1" x1="103.8" y1="-88.2" x2="70.8" y2="-204.4"/>
			<line class="st1" x1="103.8" y1="-88.2" x2="81.6" y2="-222.5"/>
			<line class="st1" x1="103.8" y1="-88.2" x2="145.9" y2="-189.2"/>
			<line class="st1" x1="103.8" y1="-88.2" x2="136.8" y2="-204.4"/>
			<line class="st1" x1="103.8" y1="-88.2" x2="126" y2="-222.5"/>
			<path class="st1" d="M104.3-88.2"/>
			<path class="st1" d="M149.7-191.2"/>
			<path class="st1" d="M104.3-88.2"/>
			<path class="st1" d="M138.3-209.3"/>
			<path class="st1" d="M127.4-225.8"/>
			<path class="st1" d="M91.7-240.7"/>
			<path class="st1" d="M116.7-238.9"/>
			<line class="st1" x1="103.8" y1="-87.9" x2="104" y2="-260.1"/>
			<polygon class="st2" points="104,-87.7 155.4,-173.7 103.8,-260 52.4,-174 			"/>
		</g>
		<g>
			<line class="st1" x1="155.7" y1="-175.2" x2="113.6" y2="-276.2"/>
			<line class="st1" x1="155.7" y1="-175.2" x2="122.7" y2="-291.4"/>
			<line class="st1" x1="155.7" y1="-175.2" x2="133.5" y2="-309.5"/>
			<line class="st1" x1="155.7" y1="-175.2" x2="197.8" y2="-276.2"/>
			<line class="st1" x1="155.7" y1="-175.2" x2="188.7" y2="-291.4"/>
			<line class="st1" x1="155.7" y1="-175.2" x2="177.9" y2="-309.5"/>
			<line class="st1" x1="155.7" y1="-174.9" x2="155.9" y2="-347.1"/>
			<polygon class="st2" points="155.9,-174.7 207.3,-260.7 155.7,-347 104.3,-261 			"/>
		</g>
		<g>
			<line class="st1" x1="51.8" y1="-175.2" x2="9.7" y2="-276.2"/>
			<line class="st1" x1="51.8" y1="-175.2" x2="18.8" y2="-291.4"/>
			<line class="st1" x1="51.8" y1="-175.2" x2="29.6" y2="-309.5"/>
			<line class="st1" x1="51.8" y1="-175.2" x2="93.9" y2="-276.2"/>
			<line class="st1" x1="51.8" y1="-175.2" x2="84.8" y2="-291.4"/>
			<line class="st1" x1="51.8" y1="-175.2" x2="74" y2="-309.5"/>
			<path class="st1" d="M52.3-175.2"/>
			<path class="st1" d="M52.3-175.2"/>
			<line class="st1" x1="51.8" y1="-174.9" x2="52" y2="-347.1"/>
			<polygon class="st2" points="52,-174.7 103.4,-260.7 51.8,-347 0.4,-261 			"/>
		</g>
	</g>
</pattern>
<g>
	<line class="st3" x1="49.3" y1="82.4" x2="91.4" y2="142.8"/>
	<line class="st3" x1="58.4" y1="73.3" x2="91.4" y2="142.8"/>
	<line class="st3" x1="69.2" y1="62.5" x2="91.4" y2="142.8"/>
	<line class="st3" x1="133.5" y1="82.4" x2="91.4" y2="142.8"/>
	<line class="st3" x1="124.4" y1="73.3" x2="91.4" y2="142.8"/>
	<line class="st3" x1="113.6" y1="62.5" x2="91.4" y2="142.8"/>
	<path class="st3" d="M91.9,142.8"/>
	<path class="st3" d="M137.3,81.2"/>
	<path class="st3" d="M91.9,142.8"/>
	<path class="st3" d="M125.9,70.4"/>
	<path class="st3" d="M115,60.5"/>
	<path class="st3" d="M79.3,51.6"/>
	<path class="st3" d="M104.3,52.7"/>
	<line class="st3" x1="91.6" y1="40" x2="91.4" y2="143"/>
	
		<rect x="55.2" y="55.1" transform="matrix(0.7071 -0.7071 0.7071 0.7071 -37.9488 91.5334)" class="st4" width="72.7" height="73"/>
</g>
<g>
	<pattern  id="SVGID_1_" xlink:href="#New_Pattern_Swatch_1" patternTransform="matrix(1 0 0 1 -129.2578 183.741)">
	</pattern>
	<line class="st5" x1="-197.9" y1="76.1" x2="-155.8" y2="177.1"/>
	<pattern  id="SVGID_2_" xlink:href="#New_Pattern_Swatch_1" patternTransform="matrix(1 0 0 1 -129.2578 183.741)">
	</pattern>
	<line class="st6" x1="-188.8" y1="60.9" x2="-155.8" y2="177.1"/>
	<pattern  id="SVGID_3_" xlink:href="#New_Pattern_Swatch_1" patternTransform="matrix(1 0 0 1 -129.2578 183.741)">
	</pattern>
	<line class="st7" x1="-178" y1="42.8" x2="-155.8" y2="177.1"/>
	<pattern  id="SVGID_4_" xlink:href="#New_Pattern_Swatch_1" patternTransform="matrix(1 0 0 1 -129.2578 183.741)">
	</pattern>
	<line class="st8" x1="-113.7" y1="76.1" x2="-155.8" y2="177.1"/>
	<pattern  id="SVGID_5_" xlink:href="#New_Pattern_Swatch_1" patternTransform="matrix(1 0 0 1 -129.2578 183.741)">
	</pattern>
	<line class="st9" x1="-122.8" y1="60.9" x2="-155.8" y2="177.1"/>
	<pattern  id="SVGID_6_" xlink:href="#New_Pattern_Swatch_1" patternTransform="matrix(1 0 0 1 -129.2578 183.741)">
	</pattern>
	<line class="st10" x1="-133.6" y1="42.8" x2="-155.8" y2="177.1"/>
	<pattern  id="SVGID_7_" xlink:href="#New_Pattern_Swatch_1" patternTransform="matrix(1 0 0 1 -129.2578 183.741)">
	</pattern>
	<path class="st11" d="M-155.3,177.1"/>
	<pattern  id="SVGID_8_" xlink:href="#New_Pattern_Swatch_1" patternTransform="matrix(1 0 0 1 -129.2578 183.741)">
	</pattern>
	<path class="st12" d="M-109.9,74.1"/>
	<pattern  id="SVGID_9_" xlink:href="#New_Pattern_Swatch_1" patternTransform="matrix(1 0 0 1 -129.2578 183.741)">
	</pattern>
	<path class="st13" d="M-155.3,177.1"/>
	<pattern  id="SVGID_10_" xlink:href="#New_Pattern_Swatch_1" patternTransform="matrix(1 0 0 1 -129.2578 183.741)">
	</pattern>
	<path class="st14" d="M-121.3,56"/>
	<pattern  id="SVGID_11_" xlink:href="#New_Pattern_Swatch_1" patternTransform="matrix(1 0 0 1 -129.2578 183.741)">
	</pattern>
	<path class="st15" d="M-132.2,39.5"/>
	<pattern  id="SVGID_12_" xlink:href="#New_Pattern_Swatch_1" patternTransform="matrix(1 0 0 1 -129.2578 183.741)">
	</pattern>
	<path class="st16" d="M-167.9,24.6"/>
	<pattern  id="SVGID_13_" xlink:href="#New_Pattern_Swatch_1" patternTransform="matrix(1 0 0 1 -129.2578 183.741)">
	</pattern>
	<path class="st17" d="M-142.9,26.4"/>
	<pattern  id="SVGID_14_" xlink:href="#New_Pattern_Swatch_1" patternTransform="matrix(1 0 0 1 -129.2578 183.741)">
	</pattern>
	<line class="st18" x1="-155.6" y1="5.2" x2="-155.8" y2="177.4"/>
	<pattern  id="SVGID_15_" xlink:href="#New_Pattern_Swatch_1" patternTransform="matrix(1 0 0 1 -129.2578 183.741)">
	</pattern>
	<polygon class="st19" points="-207.2,91.2 -155.8,5.3 -104.2,91.6 -155.6,177.6 	"/>
</g>
</svg>
